<svg xmlns="http://www.w3.org/2000/svg" width="81" height="38" viewBox="0 0 81 38" fill="none">
  <g clip-path="url(#clip0_1347_50887)">
    <path d="M70.025 6.71152C69.1984 5.87825 68.2121 5.46078 67.0653 5.46078C65.9185 5.46078 64.8923 5.87825 64.0665 6.71152C63.2399 7.54563 62.8274 8.55437 62.8274 9.73692V15.0617H67.067V19.5807H62.8274V27.1658H58.3484V9.61717C58.3742 7.22379 59.2415 5.18635 60.9472 3.50484C62.6528 1.82499 64.6927 0.983398 67.0653 0.983398C69.2308 0.983398 71.1452 1.69526 72.751 3.11731L70.025 6.71152Z" fill="#F4B321"/>
    <path d="M75.0056 27.1648V8.63159H79.4206V27.1657H75.0056V27.1648Z" fill="#F4B321"/>
    <path d="M7.09549 1.00919L6.90506 1.03247C6.81025 1.05576 6.71462 1.07655 6.61815 1.09734C6.37366 1.15056 6.12334 1.20545 5.86055 1.29775C2.89088 2.35473 1.11789 4.42544 0.59314 7.45166C0.579003 7.48576 0.564866 7.51902 0.552391 7.55146L0.5 7.69117V9.61135L0.559044 9.94816C0.576508 10.0163 0.595635 10.0837 0.605614 10.1536C1.0156 12.9361 2.57487 14.7673 5.11377 15.4468C6.13332 15.7204 7.16036 15.9291 8.16578 16.0705C8.99988 16.1869 9.84396 16.2775 10.6614 16.3649C11.4132 16.4447 12.1642 16.5245 12.9143 16.6268C13.7625 16.7416 14.3313 16.9794 14.7563 17.3961C15.6677 18.29 15.775 20.0988 14.9858 21.2689C14.2981 22.2884 13.3608 22.7566 12.0752 22.7483C9.82567 22.73 7.57616 22.7358 5.32749 22.7375L1.226 22.7408V27.0677L2.00937 27.1508C2.09253 27.1633 2.16239 27.1691 2.23141 27.1691H6.91088C8.87763 27.1691 10.8793 27.1658 12.8552 27.1475C14.2066 27.135 15.4881 26.6851 16.6657 25.8111C19.222 23.9117 20.2748 21.2747 19.7983 17.9724C19.3892 15.1382 17.7576 13.297 15.0806 12.6451C14.0353 12.3906 12.9159 12.1852 11.5579 11.9972C10.9151 11.9083 10.2664 11.8492 9.63939 11.791C8.86266 11.7195 8.13002 11.6513 7.39654 11.5332C6.40692 11.3735 5.62937 10.8754 5.20774 10.1294C4.7778 9.36769 4.74869 8.413 5.12791 7.44252C5.6277 6.16101 6.79445 5.42503 8.32877 5.42087C9.69926 5.41838 11.0689 5.41838 12.4378 5.41838H17.9946V1.00586H7.09882L7.09633 1.00835L7.09549 1.00919Z" fill="url(#paint0_linear_1347_50887)"/>
    <path d="M21.3434 1.00899L21.2653 1.85307C21.252 1.97449 21.2387 2.09507 21.2387 2.21482C21.2378 10.1226 21.2378 18.0295 21.2387 25.9373C21.2387 26.0496 21.2486 26.1618 21.2595 26.2774L21.3251 27.1415H25.6387V20.1576H25.958C26.8221 20.1526 27.667 20.151 28.5119 20.1659C29.1606 20.1776 29.7826 20.3605 30.3622 20.7098C32.0288 21.7161 32.8454 23.1157 32.8587 24.9926C32.8604 25.3003 32.8596 25.6088 32.8587 25.914V27.144H37.223L37.2555 26.3664C37.3278 24.66 37.2796 22.8379 36.4388 21.0732C35.7735 19.6786 34.9378 18.6283 33.9066 17.8965C36.6825 15.8873 37.5906 12.3122 37.2014 9.35419L37.1099 8.64732H32.8513L32.8554 10.0295C32.8579 10.4162 32.8612 10.7962 32.8496 11.1771C32.7872 13.1904 31.1922 15.168 29.366 15.494C28.3888 15.6686 27.3759 15.6919 26.3015 15.7193C26.082 15.7243 25.8607 15.7285 25.6395 15.7368L25.6379 2.39112C25.6379 2.2406 25.6262 2.09008 25.6146 1.93873L25.5564 1.00732H21.3418H21.3434V1.00899Z" fill="url(#paint1_linear_1347_50887)"/>
    <path d="M38.7499 8.63399L38.7041 9.50635C38.6983 9.59949 38.6933 9.68431 38.6933 9.7683L38.6917 11.706C38.6908 13.7758 38.6875 15.8449 38.7008 17.9147C38.7058 18.6374 38.7648 19.2528 38.8821 19.795C39.5424 22.857 41.3902 25.1556 44.2235 26.4437C46.9886 27.7028 49.6731 27.4192 51.9891 25.6254C51.9932 25.6221 51.9966 25.6196 52.0007 25.6155C52.0007 25.8217 51.9991 27.6388 51.9957 27.7976C51.9749 29.0974 51.5284 30.1752 50.6302 31.0916C48.7965 32.9602 46.1986 33.0451 44.3133 31.2937C43.9674 30.9735 43.6547 30.5802 43.3246 30.1635C43.1582 29.9548 42.9894 29.7427 42.8131 29.5332L42.3749 29.0176L38.7549 31.1448L39.1757 31.8517C40.5445 34.1511 42.1096 35.574 44.0979 36.3307C45.3013 36.789 46.4597 37.0168 47.5649 37.0168C48.7758 37.0168 49.9242 36.7424 51.0028 36.1944C54.5954 34.3665 56.4133 31.4334 56.4074 27.4774C56.4016 24.1052 56.4024 18.8719 56.4033 15.3393V9.91134C56.4033 9.78743 56.3966 9.66186 56.3891 9.54211L56.3426 8.64397H52.0041V12.2249C52.0032 14.0278 52.0024 15.8316 52.0049 17.6345C52.0066 18.7372 51.7712 19.6586 51.2847 20.4512C50.2909 22.0695 48.5188 22.9601 46.8772 22.6674C44.9129 22.3181 43.1591 20.2682 43.1258 18.2815C43.0934 16.358 43.0975 14.397 43.1008 12.5026C43.1017 11.6594 43.1033 10.817 43.1017 9.97454V8.63232H38.749V8.63399H38.7499Z" fill="url(#paint2_linear_1347_50887)"/>
    <path d="M77.9514 4.69477H80.4751C80.49 4.56504 80.5 4.43282 80.5 4.29809C80.5 4.19913 80.495 4.10184 80.4867 4.00537H76.9753C76.8389 4.00537 76.7275 3.89476 76.7275 3.75755C76.7275 3.62033 76.8381 3.50973 76.9753 3.50973H80.4044C80.3453 3.26856 80.258 3.03737 80.1499 2.82032H75.9924C75.856 2.82032 75.7446 2.70972 75.7446 2.5725C75.7446 2.43529 75.8552 2.32469 75.9924 2.32469H79.8423C79.2419 1.52717 78.2882 1.01074 77.2131 1.01074C75.3979 1.01074 73.9253 2.48269 73.9253 4.29809C73.9253 6.1135 75.3971 7.58545 77.2131 7.58545C78.2408 7.58545 79.1579 7.11309 79.76 6.37462H78.9359C78.7996 6.37462 78.6882 6.26402 78.6882 6.1268C78.6882 5.98959 78.7987 5.87898 78.9359 5.87898H80.0951C80.214 5.6636 80.3088 5.43158 80.3769 5.18958H77.9531C77.8167 5.18958 77.7053 5.07898 77.7053 4.94176C77.7053 4.80454 77.8159 4.69394 77.9531 4.69394V4.69644L77.9514 4.69477Z" fill="#F4B321"/>
  </g>
  <defs>
    <linearGradient id="paint0_linear_1347_50887" x1="8.81683" y1="0.397127" x2="8.81683" y2="27.1691" gradientUnits="userSpaceOnUse">
      <stop stop-color="#E4262B"/>
      <stop offset="1" stop-color="#981B20"/>
    </linearGradient>
    <linearGradient id="paint1_linear_1347_50887" x1="28.1149" y1="0.399211" x2="28.1149" y2="27.144" gradientUnits="userSpaceOnUse">
      <stop stop-color="#E4262B"/>
      <stop offset="1" stop-color="#981B20"/>
    </linearGradient>
    <linearGradient id="paint2_linear_1347_50887" x1="46.2821" y1="7.97191" x2="46.2821" y2="37.0168" gradientUnits="userSpaceOnUse">
      <stop stop-color="#E4262B"/>
      <stop offset="1" stop-color="#981B20"/>
    </linearGradient>
    <clipPath id="clip0_1347_50887">
      <rect width="80" height="36.032" fill="white" transform="translate(0.5 0.984131)"/>
    </clipPath>
  </defs>
</svg>